<?xml version="1.0" encoding="iso-8859-1"?>
<!-- Generator: Adobe Illustrator 19.0.0, SVG Export Plug-In . SVG Version: 6.00 Build 0)  -->
<svg version="1.1" id="Layer_1" xmlns="http://www.w3.org/2000/svg" xmlns:xlink="http://www.w3.org/1999/xlink" x="0px" y="0px"
	 viewBox="0 0 512 512" style="enable-background:new 0 0 512 512;" xml:space="preserve">
<path style="fill:#FFC61B;" d="M497.606,512H14.394C6.444,512,0,505.556,0,497.606V112.281c0-7.95,6.444-14.394,14.394-14.394
	s14.394,6.444,14.394,14.394v370.932h454.426V28.787H14.394C6.444,28.787,0,22.343,0,14.394S6.444,0,14.394,0h483.213
	C505.556,0,512,6.444,512,14.394v483.213C512,505.556,505.556,512,497.606,512z"/>
<path style="fill:#FEE187;" d="M73.717,73.715v364.568h364.567V73.715H73.717z M184.032,394.96
	c-23.277,0-42.149-18.87-42.149-42.149c0-23.277,18.87-42.149,42.149-42.149s42.149,18.87,42.149,42.149
	C226.18,376.09,207.31,394.96,184.032,394.96z M184.032,298.148c-23.277,0-42.149-18.87-42.149-42.149s18.87-42.149,42.149-42.149
	s42.149,18.87,42.149,42.149S207.31,298.148,184.032,298.148z M184.032,201.337c-23.277,0-42.149-18.87-42.149-42.149
	s18.87-42.149,42.149-42.149s42.149,18.87,42.149,42.149C226.18,182.466,207.31,201.337,184.032,201.337z M327.967,394.96
	c-23.277,0-42.149-18.87-42.149-42.149c0-23.277,18.87-42.149,42.149-42.149s42.149,18.87,42.149,42.149
	C370.116,376.09,351.246,394.96,327.967,394.96z M327.967,298.148c-23.277,0-42.149-18.87-42.149-42.149s18.87-42.149,42.149-42.149
	s42.149,18.87,42.149,42.149S351.246,298.148,327.967,298.148z M327.967,201.337c-23.277,0-42.149-18.87-42.149-42.149
	s18.87-42.149,42.149-42.149s42.149,18.87,42.149,42.149C370.116,182.466,351.246,201.337,327.967,201.337z"/>
<path style="fill:#FFC61B;" d="M438.283,452.677H73.717c-7.95,0-14.394-6.444-14.394-14.394V73.715
	c0-7.95,6.444-14.394,14.394-14.394h364.567c7.95,0,14.394,6.444,14.394,14.394v364.568
	C452.677,446.233,446.232,452.677,438.283,452.677z M88.11,423.89h335.78V88.109H88.11V423.89z M327.967,409.354
	c-31.178,0-56.542-25.364-56.542-56.542c0-20.502,10.969-38.491,27.346-48.406c-16.377-9.916-27.346-27.905-27.346-48.405
	s10.969-38.491,27.346-48.406c-16.377-9.914-27.346-27.903-27.346-48.406c0-31.178,25.364-56.542,56.542-56.542
	s56.542,25.366,56.542,56.542c0,20.502-10.969,38.491-27.346,48.406c16.377,9.916,27.346,27.905,27.346,48.406
	s-10.969,38.491-27.346,48.405c16.377,9.916,27.346,27.905,27.346,48.406C384.509,383.99,359.145,409.354,327.967,409.354z
	 M327.967,325.057c-15.303,0-27.755,12.45-27.755,27.755c0,15.303,12.45,27.755,27.755,27.755c15.305,0,27.755-12.45,27.755-27.755
	S343.272,325.057,327.967,325.057z M327.967,228.246c-15.303,0-27.755,12.45-27.755,27.755c0,15.305,12.45,27.755,27.755,27.755
	c15.305,0,27.755-12.45,27.755-27.755C355.722,240.696,343.272,228.246,327.967,228.246z M327.967,131.433
	c-15.303,0-27.755,12.45-27.755,27.755c0,15.303,12.45,27.755,27.755,27.755c15.305,0,27.755-12.45,27.755-27.755
	S343.272,131.433,327.967,131.433z M184.032,409.354c-31.178,0-56.542-25.364-56.542-56.542c0-20.502,10.969-38.491,27.346-48.406
	c-16.377-9.916-27.346-27.905-27.346-48.405s10.969-38.491,27.346-48.406c-16.377-9.914-27.346-27.903-27.346-48.406
	c0-31.178,25.364-56.542,56.542-56.542s56.542,25.366,56.542,56.542c0,20.502-10.969,38.491-27.346,48.406
	c16.377,9.916,27.346,27.905,27.346,48.406s-10.969,38.491-27.346,48.405c16.377,9.916,27.346,27.905,27.346,48.406
	C240.574,383.99,215.209,409.354,184.032,409.354z M184.032,325.057c-15.303,0-27.755,12.45-27.755,27.755
	c0,15.303,12.45,27.755,27.755,27.755s27.755-12.45,27.755-27.755C211.787,337.507,199.336,325.057,184.032,325.057z
	 M184.032,228.246c-15.303,0-27.755,12.45-27.755,27.755c0,15.305,12.45,27.755,27.755,27.755s27.755-12.45,27.755-27.755
	C211.787,240.696,199.336,228.246,184.032,228.246z M184.032,131.433c-15.303,0-27.755,12.45-27.755,27.755
	c0,15.303,12.45,27.755,27.755,27.755s27.755-12.45,27.755-27.755C211.787,143.884,199.336,131.433,184.032,131.433z"/>
<g>
</g>
<g>
</g>
<g>
</g>
<g>
</g>
<g>
</g>
<g>
</g>
<g>
</g>
<g>
</g>
<g>
</g>
<g>
</g>
<g>
</g>
<g>
</g>
<g>
</g>
<g>
</g>
<g>
</g>
</svg>
