<?xml version="1.0" encoding="iso-8859-1"?>
<!-- Generator: Adobe Illustrator 19.0.0, SVG Export Plug-In . SVG Version: 6.00 Build 0)  -->
<svg version="1.1" id="Layer_1" xmlns="http://www.w3.org/2000/svg" xmlns:xlink="http://www.w3.org/1999/xlink" x="0px" y="0px"
	 viewBox="0 0 512 512" style="enable-background:new 0 0 512 512;" xml:space="preserve">
<path style="fill:#FFC61B;" d="M497.606,512H14.394C6.445,512,0,505.556,0,497.606V112.281c0-7.95,6.445-14.394,14.394-14.394
	s14.394,6.444,14.394,14.394v370.932h454.426V28.787H14.394C6.445,28.787,0,22.343,0,14.394S6.445,0,14.394,0h483.213
	C505.555,0,512,6.444,512,14.394v483.213C512,505.556,505.555,512,497.606,512z"/>
<path style="fill:#FEE187;" d="M73.717,73.715v364.568h364.567V73.715H73.717z M172.748,372.42
	c-23.277,0-42.149-18.87-42.149-42.149s18.87-42.149,42.149-42.149c23.277,0,42.149,18.87,42.149,42.149
	C214.897,353.55,196.026,372.42,172.748,372.42z M172.748,223.876c-23.277,0-42.149-18.87-42.149-42.149
	c0-23.277,18.87-42.149,42.149-42.149c23.277,0,42.149,18.87,42.149,42.149C214.897,205.006,196.026,223.876,172.748,223.876z
	 M339.252,372.42c-23.277,0-42.149-18.87-42.149-42.149s18.87-42.149,42.149-42.149s42.149,18.87,42.149,42.149
	S362.53,372.42,339.252,372.42z M339.252,223.876c-23.277,0-42.149-18.87-42.149-42.149c0-23.277,18.87-42.149,42.149-42.149
	s42.149,18.87,42.149,42.149S362.53,223.876,339.252,223.876z"/>
<path style="fill:#FFC61B;" d="M438.283,452.677H73.717c-7.948,0-14.394-6.444-14.394-14.394V73.715
	c0-7.95,6.445-14.394,14.394-14.394h364.567c7.948,0,14.394,6.444,14.394,14.394v364.568
	C452.677,446.233,446.232,452.677,438.283,452.677z M88.11,423.89h335.78V88.109H88.11V423.89z M339.252,386.815
	c-31.178,0-56.542-25.364-56.542-56.542s25.364-56.542,56.542-56.542s56.542,25.366,56.542,56.542S370.429,386.815,339.252,386.815z
	 M339.252,302.518c-15.305,0-27.755,12.45-27.755,27.755c0,15.303,12.45,27.755,27.755,27.755c15.305,0,27.755-12.45,27.755-27.755
	S354.556,302.518,339.252,302.518z M172.748,386.815c-31.176,0-56.541-25.364-56.541-56.542s25.364-56.542,56.541-56.542
	c31.178,0,56.542,25.366,56.542,56.542S203.926,386.815,172.748,386.815z M172.748,302.518c-15.303,0-27.754,12.45-27.754,27.755
	c0,15.303,12.45,27.755,27.754,27.755c15.305,0,27.755-12.45,27.755-27.755S188.052,302.518,172.748,302.518z M339.252,238.269
	c-31.178,0-56.542-25.364-56.542-56.542s25.364-56.542,56.542-56.542s56.542,25.364,56.542,56.542S370.429,238.269,339.252,238.269z
	 M339.252,153.974c-15.305,0-27.755,12.45-27.755,27.755s12.45,27.755,27.755,27.755c15.305,0,27.755-12.45,27.755-27.755
	S354.556,153.974,339.252,153.974z M172.748,238.269c-31.176,0-56.541-25.364-56.541-56.542s25.364-56.542,56.541-56.542
	c31.178,0,56.542,25.364,56.542,56.542S203.926,238.269,172.748,238.269z M172.748,153.974c-15.303,0-27.754,12.45-27.754,27.755
	s12.45,27.755,27.754,27.755c15.305,0,27.755-12.45,27.755-27.755S188.052,153.974,172.748,153.974z"/>
<g>
</g>
<g>
</g>
<g>
</g>
<g>
</g>
<g>
</g>
<g>
</g>
<g>
</g>
<g>
</g>
<g>
</g>
<g>
</g>
<g>
</g>
<g>
</g>
<g>
</g>
<g>
</g>
<g>
</g>
</svg>
