<?xml version="1.0" encoding="iso-8859-1"?>
<!-- Generator: Adobe Illustrator 19.0.0, SVG Export Plug-In . SVG Version: 6.00 Build 0)  -->
<svg version="1.1" id="Layer_1" xmlns="http://www.w3.org/2000/svg" xmlns:xlink="http://www.w3.org/1999/xlink" x="0px" y="0px"
	 viewBox="0 0 512 512" style="enable-background:new 0 0 512 512;" xml:space="preserve">
<path style="fill:#FFC61B;" d="M497.606,512H14.394C6.444,512,0,505.556,0,497.606V112.281c0-7.95,6.444-14.394,14.394-14.394
	s14.394,6.444,14.394,14.394v370.932h454.426V28.787H14.394C6.444,28.787,0,22.343,0,14.394S6.444,0,14.394,0h483.213
	C505.556,0,512,6.444,512,14.394v483.213C512,505.556,505.556,512,497.606,512z"/>
<path style="fill:#FEE187;" d="M73.717,73.715v364.568h364.567V73.715H73.717z M178.906,222.815
	c-23.277,0-42.149-18.87-42.149-42.149s18.87-42.149,42.149-42.149c23.277,0,42.149,18.87,42.149,42.149
	C221.055,203.944,202.183,222.815,178.906,222.815z M333.094,373.482c-23.277,0-42.149-18.87-42.149-42.149
	c0-23.277,18.87-42.149,42.149-42.149c23.277,0,42.149,18.87,42.149,42.149S356.371,373.482,333.094,373.482z"/>
<path style="fill:#FFC61B;" d="M438.283,452.677H73.717c-7.95,0-14.394-6.444-14.394-14.394V73.715
	c0-7.95,6.444-14.394,14.394-14.394h364.567c7.95,0,14.394,6.444,14.394,14.394v364.568
	C452.677,446.233,446.232,452.677,438.283,452.677z M88.11,423.89h335.78V88.109H88.11V423.89z M333.094,387.876
	c-31.178,0-56.542-25.364-56.542-56.542s25.364-56.542,56.542-56.542s56.542,25.364,56.542,56.542S364.272,387.876,333.094,387.876z
	 M333.094,303.58c-15.303,0-27.755,12.45-27.755,27.755c0,15.305,12.45,27.755,27.755,27.755c15.305,0,27.755-12.45,27.755-27.755
	C360.849,316.03,348.397,303.58,333.094,303.58z M178.906,237.209c-31.178,0-56.542-25.364-56.542-56.542
	s25.364-56.542,56.542-56.542s56.542,25.366,56.542,56.542S210.084,237.209,178.906,237.209z M178.906,152.911
	c-15.303,0-27.755,12.45-27.755,27.755c0,15.303,12.45,27.755,27.755,27.755s27.755-12.45,27.755-27.755
	C206.661,165.362,194.209,152.911,178.906,152.911z"/>
<g>
</g>
<g>
</g>
<g>
</g>
<g>
</g>
<g>
</g>
<g>
</g>
<g>
</g>
<g>
</g>
<g>
</g>
<g>
</g>
<g>
</g>
<g>
</g>
<g>
</g>
<g>
</g>
<g>
</g>
</svg>
