<?xml version="1.0" encoding="iso-8859-1"?>
<!-- Generator: Adobe Illustrator 19.0.0, SVG Export Plug-In . SVG Version: 6.00 Build 0)  -->
<svg version="1.1" id="Layer_1" xmlns="http://www.w3.org/2000/svg" xmlns:xlink="http://www.w3.org/1999/xlink" x="0px" y="0px"
	 viewBox="0 0 512 512" style="enable-background:new 0 0 512 512;" xml:space="preserve">
<path style="fill:#FFC61B;" d="M497.606,512H14.394C6.445,512,0,505.556,0,497.606V112.281c0-7.95,6.445-14.394,14.394-14.394
	s14.394,6.444,14.394,14.394v370.932h454.426V28.787H14.394C6.445,28.787,0,22.343,0,14.394S6.445,0,14.394,0h483.213
	C505.555,0,512,6.444,512,14.394v483.213C512,505.556,505.555,512,497.606,512z"/>
<path style="fill:#FEE187;" d="M73.717,73.715v364.568h364.567V73.715H73.717z M158.346,395.903
	c-23.277,0-42.149-18.871-42.149-42.149c0-23.277,18.87-42.149,42.149-42.149s42.149,18.87,42.149,42.149
	C200.495,377.033,181.624,395.903,158.346,395.903z M158.346,200.393c-23.277,0-42.149-18.87-42.149-42.149
	s18.87-42.149,42.149-42.149s42.149,18.87,42.149,42.149C200.495,181.523,181.624,200.393,158.346,200.393z M255.999,298.148
	c-23.277,0-42.149-18.87-42.149-42.149c0-23.277,18.87-42.149,42.149-42.149s42.149,18.87,42.149,42.149
	S279.278,298.148,255.999,298.148z M353.654,395.903c-23.279,0-42.149-18.871-42.149-42.149c0-23.277,18.87-42.149,42.149-42.149
	c23.277,0,42.149,18.87,42.149,42.149C395.802,377.033,376.931,395.903,353.654,395.903z M353.654,200.393
	c-23.279,0-42.149-18.87-42.149-42.149s18.87-42.149,42.149-42.149c23.277,0,42.149,18.87,42.149,42.149
	S376.931,200.393,353.654,200.393z"/>
<path style="fill:#FFC61B;" d="M438.283,452.677H73.717c-7.948,0-14.394-6.444-14.394-14.394V73.715
	c0-7.95,6.445-14.394,14.394-14.394h364.567c7.948,0,14.394,6.444,14.394,14.394v364.568
	C452.677,446.233,446.232,452.677,438.283,452.677z M88.11,423.89h335.78V88.109H88.11V423.89z M353.654,410.298
	c-31.178,0-56.542-25.366-56.542-56.542s25.364-56.542,56.542-56.542s56.542,25.364,56.542,56.542S384.832,410.298,353.654,410.298z
	 M353.654,326.001c-15.305,0-27.755,12.45-27.755,27.755c0,15.305,12.45,27.755,27.755,27.755c15.305,0,27.755-12.45,27.755-27.755
	C381.409,338.451,368.958,326.001,353.654,326.001z M158.346,410.298c-31.178,0-56.542-25.366-56.542-56.542
	s25.364-56.542,56.542-56.542s56.542,25.364,56.542,56.542S189.524,410.298,158.346,410.298z M158.346,326.001
	c-15.305,0-27.755,12.45-27.755,27.755c0,15.305,12.45,27.755,27.755,27.755s27.755-12.45,27.755-27.755
	C186.101,338.451,173.651,326.001,158.346,326.001z M255.999,312.541c-31.178,0-56.542-25.364-56.542-56.542
	s25.364-56.542,56.542-56.542s56.542,25.364,56.542,56.542S287.179,312.541,255.999,312.541z M255.999,228.246
	c-15.305,0-27.755,12.45-27.755,27.755c0,15.305,12.45,27.755,27.755,27.755s27.755-12.45,27.755-27.755
	C283.754,240.696,271.304,228.246,255.999,228.246z M353.654,214.786c-31.178,0-56.542-25.364-56.542-56.542
	s25.364-56.542,56.542-56.542s56.542,25.364,56.542,56.542S384.832,214.786,353.654,214.786z M353.654,130.49
	c-15.305,0-27.755,12.45-27.755,27.755s12.45,27.755,27.755,27.755c15.305,0,27.755-12.45,27.755-27.755
	S368.958,130.49,353.654,130.49z M158.346,214.786c-31.178,0-56.542-25.364-56.542-56.542s25.364-56.542,56.542-56.542
	s56.542,25.364,56.542,56.542S189.524,214.786,158.346,214.786z M158.346,130.49c-15.305,0-27.755,12.45-27.755,27.755
	s12.45,27.755,27.755,27.755s27.755-12.45,27.755-27.755C186.101,142.941,173.651,130.49,158.346,130.49z"/>
<g>
</g>
<g>
</g>
<g>
</g>
<g>
</g>
<g>
</g>
<g>
</g>
<g>
</g>
<g>
</g>
<g>
</g>
<g>
</g>
<g>
</g>
<g>
</g>
<g>
</g>
<g>
</g>
<g>
</g>
</svg>
